<svg xmlns="http://www.w3.org/2000/svg" xmlns:xlink="http://www.w3.org/1999/xlink" width="500" zoomAndPan="magnify" viewBox="0 0 375 374.999991" height="500" preserveAspectRatio="xMidYMid meet" version="1.0"><defs><g/><clipPath id="7d5ccf653d"><path d="M 5 54.375 L 375 54.375 L 375 320.757812 L 5 320.757812 Z M 5 54.375 " clip-rule="nonzero"/></clipPath><clipPath id="ba210c4282"><path d="M 5 241 L 263 241 L 263 320.757812 L 5 320.757812 Z M 5 241 " clip-rule="nonzero"/></clipPath></defs><g fill="#149ddd" fill-opacity="1"><g transform="translate(103.766747, 201.945685)"><g><path d="M 8.015625 -6.09375 C 8.242188 -5.78125 8.421875 -5.429688 8.546875 -5.046875 C 8.679688 -4.671875 8.75 -4.269531 8.75 -3.84375 L 8.75 -3.75 C 8.75 -3.238281 8.648438 -2.753906 8.453125 -2.296875 C 8.265625 -1.847656 8 -1.445312 7.65625 -1.09375 C 7.3125 -0.75 6.914062 -0.476562 6.46875 -0.28125 C 6.019531 -0.09375 5.535156 0 5.015625 0 L 0.765625 0 C 0.765625 -0.53125 0.882812 -1.007812 1.125 -1.4375 C 1.363281 -1.863281 1.679688 -2.203125 2.078125 -2.453125 C 2.484375 -2.703125 2.929688 -2.828125 3.421875 -2.828125 L 5.015625 -2.828125 C 5.253906 -2.828125 5.46875 -2.914062 5.65625 -3.09375 C 5.84375 -3.28125 5.9375 -3.5 5.9375 -3.75 L 5.9375 -3.84375 C 5.9375 -4.101562 5.84375 -4.320312 5.65625 -4.5 C 5.46875 -4.6875 5.253906 -4.78125 5.015625 -4.78125 L 4.109375 -4.78125 C 3.492188 -4.78125 2.925781 -4.914062 2.40625 -5.1875 C 1.882812 -5.46875 1.453125 -5.835938 1.109375 -6.296875 C 0.878906 -6.609375 0.695312 -6.953125 0.5625 -7.328125 C 0.4375 -7.710938 0.375 -8.113281 0.375 -8.53125 L 0.375 -8.640625 C 0.375 -9.160156 0.46875 -9.644531 0.65625 -10.09375 C 0.851562 -10.550781 1.125 -10.945312 1.46875 -11.28125 C 1.8125 -11.625 2.207031 -11.894531 2.65625 -12.09375 C 3.113281 -12.289062 3.597656 -12.390625 4.109375 -12.390625 L 8.03125 -12.390625 C 8.03125 -11.859375 7.910156 -11.378906 7.671875 -10.953125 C 7.429688 -10.523438 7.113281 -10.1875 6.71875 -9.9375 C 6.320312 -9.6875 5.875 -9.5625 5.375 -9.5625 L 4.109375 -9.5625 C 3.859375 -9.5625 3.640625 -9.46875 3.453125 -9.28125 C 3.273438 -9.09375 3.1875 -8.878906 3.1875 -8.640625 L 3.1875 -8.53125 C 3.1875 -8.28125 3.273438 -8.0625 3.453125 -7.875 C 3.640625 -7.695312 3.859375 -7.609375 4.109375 -7.609375 L 5.015625 -7.609375 C 5.628906 -7.609375 6.195312 -7.46875 6.71875 -7.1875 C 7.238281 -6.914062 7.671875 -6.550781 8.015625 -6.09375 Z M 8.015625 -6.09375 "/></g></g></g><g fill="#149ddd" fill-opacity="1"><g transform="translate(112.75005, 201.945685)"><g><path d="M 8.125 -11.984375 C 8.550781 -12.191406 9.007812 -12.296875 9.5 -12.296875 L 9.5 -2.46875 C 9.5 -1.945312 9.351562 -1.472656 9.0625 -1.046875 C 8.769531 -0.628906 8.390625 -0.304688 7.921875 -0.078125 C 7.515625 0.140625 7.078125 0.269531 6.609375 0.3125 C 6.421875 0.332031 6.253906 0.347656 6.109375 0.359375 C 5.972656 0.367188 5.75 0.375 5.4375 0.375 C 5.257812 0.375 5.109375 0.375 4.984375 0.375 C 4.734375 0.375 4.488281 0.367188 4.25 0.359375 C 4.019531 0.347656 3.789062 0.332031 3.5625 0.3125 C 3.1875 0.28125 2.828125 0.203125 2.484375 0.078125 C 2.148438 -0.046875 1.859375 -0.226562 1.609375 -0.46875 C 1.546875 -0.519531 1.488281 -0.578125 1.4375 -0.640625 C 1.195312 -0.878906 1.003906 -1.15625 0.859375 -1.46875 C 0.722656 -1.78125 0.65625 -2.113281 0.65625 -2.46875 L 0.65625 -12.296875 C 1.164062 -12.296875 1.640625 -12.1875 2.078125 -11.96875 C 2.535156 -11.738281 2.90625 -11.410156 3.1875 -10.984375 C 3.46875 -10.566406 3.609375 -10.101562 3.609375 -9.59375 L 3.609375 -2.90625 C 3.609375 -2.6875 3.679688 -2.515625 3.828125 -2.390625 C 3.960938 -2.273438 4.128906 -2.21875 4.328125 -2.21875 L 5.484375 -2.21875 L 5.84375 -2.203125 L 5.84375 -2.21875 C 5.84375 -2.21875 5.847656 -2.21875 5.859375 -2.21875 C 6.046875 -2.21875 6.207031 -2.289062 6.34375 -2.4375 C 6.476562 -2.582031 6.546875 -2.75 6.546875 -2.9375 L 6.546875 -9.59375 C 6.546875 -10.101562 6.691406 -10.570312 6.984375 -11 C 7.273438 -11.425781 7.65625 -11.753906 8.125 -11.984375 Z M 8.125 -11.984375 "/></g></g></g><g fill="#149ddd" fill-opacity="1"><g transform="translate(122.907381, 201.945685)"><g><path d="M 7.546875 -4.15625 L 10.015625 -0.46875 C 9.585938 -0.1875 9.148438 -0.03125 8.703125 0 C 8.265625 0.03125 7.847656 -0.0507812 7.453125 -0.25 C 7.054688 -0.445312 6.71875 -0.753906 6.4375 -1.171875 L 4.796875 -3.59375 L 3.5625 -3.59375 L 3.5625 -3.5 C 3.5625 -2.851562 3.425781 -2.265625 3.15625 -1.734375 C 2.882812 -1.210938 2.519531 -0.789062 2.0625 -0.46875 C 1.613281 -0.15625 1.109375 0 0.546875 0 L 0.546875 -9.75 C 0.546875 -10.144531 0.628906 -10.515625 0.796875 -10.859375 C 0.960938 -11.203125 1.179688 -11.503906 1.453125 -11.765625 C 1.734375 -12.035156 2.039062 -12.242188 2.375 -12.390625 C 2.71875 -12.535156 3.0625 -12.609375 3.40625 -12.609375 L 5.203125 -12.609375 C 5.890625 -12.609375 6.507812 -12.507812 7.0625 -12.3125 C 7.625 -12.113281 8.101562 -11.828125 8.5 -11.453125 C 8.894531 -11.066406 9.203125 -10.597656 9.421875 -10.046875 C 9.628906 -9.503906 9.734375 -8.878906 9.734375 -8.171875 L 9.734375 -8.15625 C 9.734375 -7.40625 9.613281 -6.75 9.375 -6.1875 C 9.144531 -5.613281 8.820312 -5.140625 8.40625 -4.765625 C 8.144531 -4.515625 7.859375 -4.3125 7.546875 -4.15625 Z M 3.5625 -9.6875 L 3.5625 -6.34375 L 5 -6.34375 C 5.53125 -6.34375 5.953125 -6.492188 6.265625 -6.796875 C 6.566406 -7.085938 6.71875 -7.484375 6.71875 -7.984375 L 6.71875 -8.03125 C 6.71875 -8.570312 6.566406 -8.984375 6.265625 -9.265625 C 5.953125 -9.546875 5.519531 -9.6875 4.96875 -9.6875 Z M 3.5625 -9.6875 "/></g></g></g><g fill="#149ddd" fill-opacity="1"><g transform="translate(133.35492, 201.945685)"><g><path d="M 3.390625 -4.90625 L 3.390625 -2.921875 L 8.078125 -2.921875 C 8.078125 -2.390625 7.953125 -1.898438 7.703125 -1.453125 C 7.453125 -1.015625 7.113281 -0.660156 6.6875 -0.390625 C 6.257812 -0.128906 5.769531 0 5.21875 0 L 3.3125 0 C 2.800781 0 2.332031 -0.125 1.90625 -0.375 C 1.476562 -0.625 1.140625 -0.960938 0.890625 -1.390625 C 0.640625 -1.816406 0.515625 -2.285156 0.515625 -2.796875 L 0.515625 -9.578125 C 0.515625 -10.097656 0.644531 -10.570312 0.90625 -11 C 1.164062 -11.4375 1.507812 -11.785156 1.9375 -12.046875 C 2.363281 -12.304688 2.84375 -12.4375 3.375 -12.4375 L 8.71875 -12.4375 C 8.71875 -11.894531 8.609375 -11.398438 8.390625 -10.953125 C 8.171875 -10.503906 7.859375 -10.148438 7.453125 -9.890625 C 7.054688 -9.628906 6.585938 -9.5 6.046875 -9.5 L 3.390625 -9.5 L 3.390625 -7.625 L 6.890625 -7.625 L 6.234375 -4.90625 Z M 3.390625 -4.90625 "/></g></g></g><g fill="#149ddd" fill-opacity="1"><g transform="translate(142.602048, 201.945685)"><g><path d="M 8.015625 -6.09375 C 8.242188 -5.78125 8.421875 -5.429688 8.546875 -5.046875 C 8.679688 -4.671875 8.75 -4.269531 8.75 -3.84375 L 8.75 -3.75 C 8.75 -3.238281 8.648438 -2.753906 8.453125 -2.296875 C 8.265625 -1.847656 8 -1.445312 7.65625 -1.09375 C 7.3125 -0.75 6.914062 -0.476562 6.46875 -0.28125 C 6.019531 -0.09375 5.535156 0 5.015625 0 L 0.765625 0 C 0.765625 -0.53125 0.882812 -1.007812 1.125 -1.4375 C 1.363281 -1.863281 1.679688 -2.203125 2.078125 -2.453125 C 2.484375 -2.703125 2.929688 -2.828125 3.421875 -2.828125 L 5.015625 -2.828125 C 5.253906 -2.828125 5.46875 -2.914062 5.65625 -3.09375 C 5.84375 -3.28125 5.9375 -3.5 5.9375 -3.75 L 5.9375 -3.84375 C 5.9375 -4.101562 5.84375 -4.320312 5.65625 -4.5 C 5.46875 -4.6875 5.253906 -4.78125 5.015625 -4.78125 L 4.109375 -4.78125 C 3.492188 -4.78125 2.925781 -4.914062 2.40625 -5.1875 C 1.882812 -5.46875 1.453125 -5.835938 1.109375 -6.296875 C 0.878906 -6.609375 0.695312 -6.953125 0.5625 -7.328125 C 0.4375 -7.710938 0.375 -8.113281 0.375 -8.53125 L 0.375 -8.640625 C 0.375 -9.160156 0.46875 -9.644531 0.65625 -10.09375 C 0.851562 -10.550781 1.125 -10.945312 1.46875 -11.28125 C 1.8125 -11.625 2.207031 -11.894531 2.65625 -12.09375 C 3.113281 -12.289062 3.597656 -12.390625 4.109375 -12.390625 L 8.03125 -12.390625 C 8.03125 -11.859375 7.910156 -11.378906 7.671875 -10.953125 C 7.429688 -10.523438 7.113281 -10.1875 6.71875 -9.9375 C 6.320312 -9.6875 5.875 -9.5625 5.375 -9.5625 L 4.109375 -9.5625 C 3.859375 -9.5625 3.640625 -9.46875 3.453125 -9.28125 C 3.273438 -9.09375 3.1875 -8.878906 3.1875 -8.640625 L 3.1875 -8.53125 C 3.1875 -8.28125 3.273438 -8.0625 3.453125 -7.875 C 3.640625 -7.695312 3.859375 -7.609375 4.109375 -7.609375 L 5.015625 -7.609375 C 5.628906 -7.609375 6.195312 -7.46875 6.71875 -7.1875 C 7.238281 -6.914062 7.671875 -6.550781 8.015625 -6.09375 Z M 8.015625 -6.09375 "/></g></g></g><g fill="#149ddd" fill-opacity="1"><g transform="translate(151.585351, 201.945685)"><g><path d="M 7.0625 -9.671875 C 7.0625 -10.171875 7.191406 -10.625 7.453125 -11.03125 C 7.710938 -11.445312 8.066406 -11.773438 8.515625 -12.015625 C 8.960938 -12.265625 9.460938 -12.390625 10.015625 -12.390625 L 10.015625 -2.53125 C 10.015625 -2.03125 9.878906 -1.570312 9.609375 -1.15625 C 9.335938 -0.75 8.976562 -0.421875 8.53125 -0.171875 C 8.09375 0.0664062 7.601562 0.1875 7.0625 0.1875 L 7.0625 -4.796875 L 3.640625 -4.796875 L 3.640625 -2.53125 C 3.640625 -2.03125 3.503906 -1.570312 3.234375 -1.15625 C 2.960938 -0.75 2.601562 -0.421875 2.15625 -0.171875 C 1.71875 0.0664062 1.226562 0.1875 0.6875 0.1875 L 0.6875 -7.078125 C 0.664062 -7.179688 0.65625 -7.285156 0.65625 -7.390625 L 0.6875 -7.390625 L 0.6875 -9.671875 C 0.6875 -10.171875 0.816406 -10.625 1.078125 -11.03125 C 1.347656 -11.445312 1.707031 -11.773438 2.15625 -12.015625 C 2.601562 -12.265625 3.097656 -12.390625 3.640625 -12.390625 L 3.640625 -7.390625 L 7.0625 -7.390625 Z M 7.0625 -9.671875 "/></g></g></g><g fill="#149ddd" fill-opacity="1"><g transform="translate(162.270337, 201.945685)"><g/></g></g><g fill="#149ddd" fill-opacity="1"><g transform="translate(166.22774, 201.945685)"><g><path d="M 6.546875 -6.03125 L 9.9375 -0.40625 C 9.53125 -0.164062 9.085938 -0.03125 8.609375 0 C 8.128906 0.0195312 7.671875 -0.0664062 7.234375 -0.265625 C 6.804688 -0.460938 6.46875 -0.769531 6.21875 -1.1875 L 4.015625 -4.84375 C 3.859375 -4.800781 3.695312 -4.78125 3.53125 -4.78125 L 3.53125 -2.71875 C 3.53125 -2.226562 3.398438 -1.785156 3.140625 -1.390625 C 2.878906 -0.992188 2.535156 -0.675781 2.109375 -0.4375 C 1.679688 -0.195312 1.195312 -0.078125 0.65625 -0.078125 L 0.65625 -10.078125 C 0.65625 -10.554688 0.785156 -10.992188 1.046875 -11.390625 C 1.304688 -11.796875 1.65625 -12.113281 2.09375 -12.34375 C 2.53125 -12.582031 3.007812 -12.703125 3.53125 -12.703125 L 3.53125 -7.40625 L 5.90625 -11.46875 C 6.28125 -12.09375 6.773438 -12.484375 7.390625 -12.640625 C 8.015625 -12.796875 8.664062 -12.675781 9.34375 -12.28125 L 6.046875 -6.625 C 6.160156 -6.519531 6.25 -6.425781 6.3125 -6.34375 C 6.375 -6.269531 6.453125 -6.164062 6.546875 -6.03125 Z M 6.546875 -6.03125 "/></g></g></g><g fill="#149ddd" fill-opacity="1"><g transform="translate(176.437837, 201.945685)"><g><path d="M 7.234375 -10.78125 L 10.09375 -0.09375 C 9.601562 0.03125 9.128906 0.03125 8.671875 -0.09375 C 8.210938 -0.21875 7.8125 -0.4375 7.46875 -0.75 C 7.132812 -1.0625 6.914062 -1.445312 6.8125 -1.90625 L 6.65625 -2.5 L 6.609375 -2.78125 L 3.59375 -2.78125 L 3.53125 -2.5 L 3.390625 -1.90625 C 3.273438 -1.445312 3.050781 -1.0625 2.71875 -0.75 C 2.394531 -0.4375 2 -0.21875 1.53125 -0.09375 C 1.070312 0.03125 0.59375 0.03125 0.09375 -0.09375 L 2.96875 -10.78125 C 3.125 -11.425781 3.492188 -11.914062 4.078125 -12.25 C 4.398438 -12.4375 4.742188 -12.53125 5.109375 -12.53125 C 5.460938 -12.53125 5.800781 -12.4375 6.125 -12.25 C 6.707031 -11.914062 7.078125 -11.425781 7.234375 -10.78125 Z M 6.140625 -5.015625 L 5.109375 -9 L 4.0625 -5.015625 Z M 6.140625 -5.015625 "/></g></g></g><g fill="#149ddd" fill-opacity="1"><g transform="translate(186.687514, 201.945685)"><g><path d="M 9.453125 -9.96875 C 9.660156 -9.414062 9.765625 -8.796875 9.765625 -8.109375 L 9.765625 -8.078125 C 9.765625 -7.335938 9.648438 -6.6875 9.421875 -6.125 C 9.191406 -5.5625 8.875 -5.09375 8.46875 -4.71875 C 8.050781 -4.332031 7.554688 -4.046875 6.984375 -3.859375 C 6.410156 -3.671875 5.789062 -3.578125 5.125 -3.578125 L 3.65625 -3.578125 L 3.65625 -3.46875 C 3.65625 -2.820312 3.519531 -2.238281 3.25 -1.71875 C 2.976562 -1.195312 2.613281 -0.78125 2.15625 -0.46875 C 1.707031 -0.15625 1.207031 0 0.65625 0 L 0.65625 -9.671875 C 0.65625 -10.054688 0.738281 -10.421875 0.90625 -10.765625 C 1.070312 -11.109375 1.289062 -11.410156 1.5625 -11.671875 C 1.84375 -11.929688 2.148438 -12.132812 2.484375 -12.28125 C 2.816406 -12.425781 3.15625 -12.5 3.5 -12.5 L 5.28125 -12.5 C 5.957031 -12.5 6.578125 -12.40625 7.140625 -12.21875 C 7.691406 -12.007812 8.164062 -11.722656 8.5625 -11.359375 C 8.945312 -10.972656 9.242188 -10.507812 9.453125 -9.96875 Z M 6.78125 -7.921875 L 6.78125 -7.953125 C 6.78125 -8.492188 6.628906 -8.90625 6.328125 -9.1875 C 6.023438 -9.46875 5.597656 -9.609375 5.046875 -9.609375 L 3.65625 -9.609375 L 3.65625 -6.296875 L 5.078125 -6.296875 C 5.609375 -6.296875 6.023438 -6.4375 6.328125 -6.71875 C 6.628906 -7.007812 6.78125 -7.410156 6.78125 -7.921875 Z M 6.78125 -7.921875 "/></g></g></g><g fill="#149ddd" fill-opacity="1"><g transform="translate(197.135058, 201.945685)"><g><path d="M 7.234375 -10.78125 L 10.09375 -0.09375 C 9.601562 0.03125 9.128906 0.03125 8.671875 -0.09375 C 8.210938 -0.21875 7.8125 -0.4375 7.46875 -0.75 C 7.132812 -1.0625 6.914062 -1.445312 6.8125 -1.90625 L 6.65625 -2.5 L 6.609375 -2.78125 L 3.59375 -2.78125 L 3.53125 -2.5 L 3.390625 -1.90625 C 3.273438 -1.445312 3.050781 -1.0625 2.71875 -0.75 C 2.394531 -0.4375 2 -0.21875 1.53125 -0.09375 C 1.070312 0.03125 0.59375 0.03125 0.09375 -0.09375 L 2.96875 -10.78125 C 3.125 -11.425781 3.492188 -11.914062 4.078125 -12.25 C 4.398438 -12.4375 4.742188 -12.53125 5.109375 -12.53125 C 5.460938 -12.53125 5.800781 -12.4375 6.125 -12.25 C 6.707031 -11.914062 7.078125 -11.425781 7.234375 -10.78125 Z M 6.140625 -5.015625 L 5.109375 -9 L 4.0625 -5.015625 Z M 6.140625 -5.015625 "/></g></g></g><g fill="#149ddd" fill-opacity="1"><g transform="translate(207.384734, 201.945685)"><g><path d="M 5.109375 -12.546875 C 5.972656 -12.546875 6.75 -12.363281 7.4375 -12 C 8.125 -11.644531 8.664062 -11.125 9.0625 -10.4375 C 9.46875 -9.757812 9.671875 -8.941406 9.671875 -7.984375 L 9.671875 -4.125 C 9.671875 -3.550781 9.554688 -3.007812 9.328125 -2.5 C 9.097656 -2 8.773438 -1.550781 8.359375 -1.15625 C 7.941406 -0.769531 7.457031 -0.46875 6.90625 -0.25 C 6.351562 -0.03125 5.753906 0.078125 5.109375 0.078125 L 0.6875 0.078125 C 0.675781 0.078125 0.671875 0.078125 0.671875 0.078125 C 0.671875 0.078125 0.664062 0.078125 0.65625 0.078125 L 0.65625 -9.828125 C 0.65625 -10.296875 0.757812 -10.722656 0.96875 -11.109375 C 1.175781 -11.503906 1.460938 -11.828125 1.828125 -12.078125 C 2.191406 -12.335938 2.613281 -12.488281 3.09375 -12.53125 L 3.09375 -12.546875 L 3.40625 -12.546875 C 3.414062 -12.546875 3.421875 -12.546875 3.421875 -12.546875 Z M 7 -4.546875 L 7 -7.90625 C 7 -8.25 6.910156 -8.570312 6.734375 -8.875 C 6.566406 -9.175781 6.335938 -9.414062 6.046875 -9.59375 C 5.765625 -9.78125 5.453125 -9.875 5.109375 -9.875 L 3.421875 -9.875 L 3.421875 -2.65625 C 3.421875 -2.644531 3.421875 -2.628906 3.421875 -2.609375 C 3.421875 -2.597656 3.421875 -2.585938 3.421875 -2.578125 L 5.109375 -2.578125 C 5.453125 -2.578125 5.765625 -2.671875 6.046875 -2.859375 C 6.335938 -3.046875 6.566406 -3.285156 6.734375 -3.578125 C 6.910156 -3.878906 7 -4.203125 7 -4.546875 Z M 7 -4.546875 "/></g></g></g><g fill="#149ddd" fill-opacity="1"><g transform="translate(217.753119, 201.945685)"><g><path d="M 0.65625 -9.765625 C 0.65625 -10.253906 0.785156 -10.695312 1.046875 -11.09375 C 1.304688 -11.5 1.65625 -11.820312 2.09375 -12.0625 C 2.53125 -12.300781 3.015625 -12.421875 3.546875 -12.421875 L 3.546875 -2.59375 C 3.546875 -2.101562 3.414062 -1.65625 3.15625 -1.25 C 2.894531 -0.851562 2.546875 -0.535156 2.109375 -0.296875 C 1.679688 -0.0664062 1.195312 0.046875 0.65625 0.046875 Z M 0.65625 -9.765625 "/></g></g></g><g clip-path="url(#7d5ccf653d)"><path fill="#149ddd" d="M 261.457031 55.140625 C 244.375 72.207031 228.726562 88.140625 212.628906 103.613281 C 210.246094 105.898438 205.746094 106.898438 202.203125 106.925781 C 163.703125 107.15625 125.199219 106.867188 86.699219 107.15625 C 64.570312 107.320312 51.242188 128.480469 61.300781 146.867188 C 65.910156 155.292969 73.101562 160.796875 82.773438 160.886719 C 118.582031 161.234375 154.402344 161.199219 190.207031 160.902344 C 193.222656 160.878906 196.789062 158.4375 199.113281 156.128906 C 231.109375 124.402344 262.8125 92.371094 294.976562 60.808594 C 298.320312 57.53125 304.074219 55.203125 308.78125 55.066406 C 329.933594 54.457031 351.117188 54.800781 372.300781 54.800781 C 328.558594 98.28125 284.984375 141.578125 241.472656 184.824219 C 287.203125 230.175781 330.933594 273.554688 374.675781 316.933594 C 374.09375 318.027344 373.507812 319.113281 372.933594 320.203125 C 366.910156 320.203125 360.894531 320.203125 354.871094 320.203125 C 339.652344 320.203125 324.417969 319.910156 309.214844 320.351562 C 302.988281 320.535156 298.691406 318.496094 294.375 314.140625 C 263.09375 282.535156 231.710938 251.039062 199.976562 219.886719 C 196.621094 216.601562 190.839844 214.203125 186.144531 214.136719 C 152.429688 213.644531 118.691406 214.449219 84.972656 213.683594 C 53.59375 212.976562 29.203125 198.910156 14.652344 170.65625 C 0.320312 142.835938 2.332031 115.117188 19.664062 89.175781 C 33.195312 68.9375 52.878906 56.019531 77.0625 55.542969 C 137.886719 54.332031 198.757812 55.140625 261.457031 55.140625 Z M 261.457031 55.140625 " fill-opacity="1" fill-rule="nonzero"/></g><g clip-path="url(#ba210c4282)"><path fill="#149ddd" d="M 6.113281 241.3125 C 20.902344 248.253906 35.105469 256.554688 50.386719 261.589844 C 63.183594 265.816406 77.210938 267.753906 90.742188 268.023438 C 127.730469 268.757812 164.738281 267.886719 201.734375 268.1875 C 206.179688 268.222656 211.585938 270.53125 214.855469 273.589844 C 230.445312 288.164062 245.441406 303.367188 262.066406 319.738281 C 257.382812 319.992188 255.097656 320.214844 252.8125 320.214844 C 196.714844 320.222656 140.613281 320.441406 84.515625 320.132812 C 42.269531 319.882812 7.921875 287.253906 5.851562 246.125 C 5.757812 244.171875 6.054688 242.199219 6.113281 241.3125 Z M 6.113281 241.3125 " fill-opacity="1" fill-rule="nonzero"/></g></svg>